# Blender v2.79 (sub 0) OBJ File: ''
# www.blender.org
o Invader-2
v -0.400000 0.320000 -0.160000
v -0.240000 0.640000 -0.160000
v 0.400000 0.320000 -0.160000
v 0.560000 0.160000 -0.160000
v 0.560000 0.480000 -0.160000
v 0.400000 0.160000 -0.160000
v 0.720000 0.480000 -0.160000
v 0.720000 0.640000 -0.160000
v 0.880000 0.640000 -0.160000
v 0.400000 0.640000 -0.160000
v 0.240000 0.640000 -0.160000
v -0.560000 0.480000 -0.160000
v -0.400000 0.640000 -0.160000
v 0.880000 0.160000 -0.160000
v 0.720000 0.160000 -0.160000
v -0.240000 0.800000 -0.160000
v 0.240000 0.800000 -0.160000
v 0.400000 0.800000 -0.160000
v 0.400000 0.960000 -0.160000
v 0.560000 0.960000 -0.160000
v 0.240000 0.960000 -0.160000
v -0.240000 0.960000 -0.160000
v 0.560000 0.800000 -0.160000
v -0.400000 0.960000 -0.160000
v -0.400000 0.800000 -0.160000
v -0.560000 0.960000 -0.160000
v -0.560000 0.800000 -0.160000
v -0.720000 0.640000 -0.160000
v -0.720000 0.800000 -0.160000
v 0.240000 1.120000 -0.160000
v 0.400000 1.120000 -0.160000
v -0.400000 1.120000 -0.160000
v -0.240000 1.120000 -0.160000
v 0.720000 0.800000 -0.160000
v -0.720000 0.480000 -0.160000
v -0.880000 0.640000 -0.160000
v -0.880000 0.160000 -0.160000
v -0.720000 0.160000 -0.160000
v -0.560000 0.160000 -0.160000
v -0.400000 0.160000 -0.160000
v 0.400000 0.320000 -0.000000
v 0.240000 0.640000 -0.000000
v -0.400000 0.320000 -0.000000
v -0.560000 0.160000 -0.000000
v -0.560000 0.480000 -0.000000
v -0.400000 0.160000 -0.000000
v -0.720000 0.480000 -0.000000
v -0.720000 0.640000 -0.000000
v -0.880000 0.640000 -0.000000
v -0.400000 0.640000 -0.000000
v -0.240000 0.640000 -0.000000
v 0.560000 0.480000 -0.000000
v 0.400000 0.640000 -0.000000
v -0.880000 0.160000 -0.000000
v -0.720000 0.160000 -0.000000
v 0.240000 0.800000 -0.000000
v -0.240000 0.800000 -0.000000
v -0.400000 0.800000 -0.000000
v -0.400000 0.960000 -0.000000
v -0.560000 0.960000 -0.000000
v -0.240000 0.960000 -0.000000
v 0.240000 0.960000 -0.000000
v -0.560000 0.800000 -0.000000
v 0.400000 0.960000 -0.000000
v 0.400000 0.800000 -0.000000
v 0.560000 0.960000 -0.000000
v 0.560000 0.800000 -0.000000
v 0.720000 0.640000 -0.000000
v 0.720000 0.800000 -0.000000
v -0.240000 1.120000 -0.000000
v -0.400000 1.120000 -0.000000
v 0.400000 1.120000 -0.000000
v 0.240000 1.120000 -0.000000
v -0.720000 0.800000 -0.000000
v 0.720000 0.480000 -0.000000
v 0.880000 0.640000 -0.000000
v 0.880000 0.160000 -0.000000
v 0.720000 0.160000 -0.000000
v 0.560000 0.160000 -0.000000
v 0.400000 0.160000 -0.000000
v -0.560000 1.120000 -0.160000
v -0.560000 1.280000 -0.000000
v -0.560000 1.280000 -0.160000
v -0.560000 1.120000 -0.000000
v -0.400000 1.280000 -0.000000
v -0.400000 1.280000 -0.160000
v 0.400000 1.280000 -0.000000
v 0.400000 1.280000 -0.160000
v 0.560000 1.280000 -0.000000
v 0.560000 1.120000 -0.160000
v 0.560000 1.280000 -0.160000
v 0.560000 1.120000 -0.000000
v -0.400000 0.000000 -0.160000
v -0.400000 0.000000 0.000000
v -0.080000 0.160000 -0.000000
v -0.080000 0.000000 -0.160000
v -0.080000 0.160000 -0.160000
v -0.080000 0.000000 0.000000
v 0.080000 0.000000 -0.160000
v 0.080000 0.160000 -0.000000
v 0.080000 0.160000 -0.160000
v 0.080000 0.000000 0.000000
v 0.400000 0.000000 -0.160000
v 0.400000 0.000000 0.000000
vn 0.0000 0.0000 -1.0000
vn 0.0000 0.0000 1.0000
vn 0.0000 -1.0000 0.0000
vn -1.0000 0.0000 0.0000
vn 1.0000 0.0000 0.0000
vn 0.0000 1.0000 0.0000
s off
f 1//1 2//1 3//1
f 4//1 3//1 5//1
f 3//1 4//1 6//1
f 7//1 8//1 9//1
f 8//1 5//1 10//1
f 3//1 10//1 5//1
f 10//1 3//1 11//1
f 11//1 3//1 2//1
f 2//1 12//1 13//1
f 8//1 7//1 5//1
f 14//1 7//1 9//1
f 7//1 14//1 15//1
f 11//1 16//1 17//1
f 16//1 11//1 2//1
f 18//1 19//1 20//1
f 19//1 18//1 21//1
f 21//1 17//1 22//1
f 16//1 22//1 17//1
f 18//1 20//1 23//1
f 21//1 18//1 17//1
f 22//1 16//1 24//1
f 25//1 24//1 16//1
f 24//1 25//1 26//1
f 25//1 27//1 26//1
f 13//1 27//1 25//1
f 28//1 27//1 13//1
f 27//1 28//1 29//1
f 19//1 30//1 31//1
f 30//1 19//1 21//1
f 22//1 32//1 33//1
f 32//1 22//1 24//1
f 8//1 23//1 34//1
f 10//1 23//1 8//1
f 23//1 10//1 18//1
f 13//1 12//1 28//1
f 35//1 28//1 12//1
f 28//1 35//1 36//1
f 37//1 35//1 38//1
f 35//1 37//1 36//1
f 2//1 1//1 12//1
f 39//1 1//1 40//1
f 1//1 39//1 12//1
f 41//2 42//2 43//2
f 44//2 43//2 45//2
f 43//2 44//2 46//2
f 47//2 48//2 49//2
f 48//2 45//2 50//2
f 43//2 50//2 45//2
f 50//2 43//2 51//2
f 51//2 43//2 42//2
f 42//2 52//2 53//2
f 48//2 47//2 45//2
f 54//2 47//2 49//2
f 47//2 54//2 55//2
f 51//2 56//2 57//2
f 56//2 51//2 42//2
f 58//2 59//2 60//2
f 59//2 58//2 61//2
f 61//2 57//2 62//2
f 56//2 62//2 57//2
f 58//2 60//2 63//2
f 61//2 58//2 57//2
f 62//2 56//2 64//2
f 65//2 64//2 56//2
f 64//2 65//2 66//2
f 65//2 67//2 66//2
f 53//2 67//2 65//2
f 68//2 67//2 53//2
f 67//2 68//2 69//2
f 59//2 70//2 71//2
f 70//2 59//2 61//2
f 62//2 72//2 73//2
f 72//2 62//2 64//2
f 48//2 63//2 74//2
f 50//2 63//2 48//2
f 63//2 50//2 58//2
f 53//2 52//2 68//2
f 75//2 68//2 52//2
f 68//2 75//2 76//2
f 77//2 75//2 78//2
f 75//2 77//2 76//2
f 42//2 41//2 52//2
f 79//2 41//2 80//2
f 41//2 79//2 52//2
f 47//3 12//3 45//3
f 12//3 47//3 35//3
f 39//4 45//4 12//4
f 45//4 39//4 44//4
f 44//3 40//3 46//3
f 40//3 44//3 39//3
f 43//5 40//5 1//5
f 40//5 43//5 46//5
f 43//3 3//3 41//3
f 3//3 43//3 1//3
f 6//4 41//4 3//4
f 41//4 6//4 80//4
f 80//3 4//3 79//3
f 4//3 80//3 6//3
f 52//5 4//5 5//5
f 4//5 52//5 79//5
f 52//3 7//3 75//3
f 7//3 52//3 5//3
f 15//4 75//4 7//4
f 75//4 15//4 78//4
f 78//3 14//3 77//3
f 14//3 78//3 15//3
f 76//5 14//5 9//5
f 14//5 76//5 77//5
f 8//6 76//6 9//6
f 76//6 8//6 68//6
f 69//5 8//5 34//5
f 8//5 69//5 68//5
f 23//6 69//6 34//6
f 69//6 23//6 67//6
f 66//5 23//5 20//5
f 23//5 66//5 67//5
f 19//6 66//6 20//6
f 66//6 19//6 64//6
f 72//5 19//5 31//5
f 19//5 72//5 64//5
f 30//6 72//6 31//6
f 72//6 30//6 73//6
f 21//4 73//4 30//4
f 73//4 21//4 62//4
f 22//6 62//6 21//6
f 62//6 22//6 61//6
f 70//5 22//5 33//5
f 22//5 70//5 61//5
f 32//6 70//6 33//6
f 70//6 32//6 71//6
f 24//4 71//4 32//4
f 71//4 24//4 59//4
f 26//6 59//6 24//6
f 59//6 26//6 60//6
f 27//4 60//4 26//4
f 60//4 27//4 63//4
f 29//6 63//6 27//6
f 63//6 29//6 74//6
f 28//4 74//4 29//4
f 74//4 28//4 48//4
f 36//6 48//6 28//6
f 48//6 36//6 49//6
f 37//4 49//4 36//4
f 49//4 37//4 54//4
f 54//3 38//3 55//3
f 38//3 54//3 37//3
f 47//5 38//5 35//5
f 38//5 47//5 55//5
f 81//4 82//4 83//4
f 82//4 81//4 84//4
f 85//5 32//5 86//5
f 32//5 85//5 71//5
f 32//1 83//1 86//1
f 83//1 32//1 81//1
f 84//2 85//2 82//2
f 85//2 84//2 71//2
f 83//6 85//6 86//6
f 85//6 83//6 82//6
f 84//3 32//3 71//3
f 32//3 84//3 81//3
f 31//4 87//4 88//4
f 87//4 31//4 72//4
f 89//5 90//5 91//5
f 90//5 89//5 92//5
f 90//1 88//1 91//1
f 88//1 90//1 31//1
f 88//6 89//6 91//6
f 89//6 88//6 87//6
f 72//3 90//3 92//3
f 90//3 72//3 31//3
f 72//2 89//2 87//2
f 89//2 72//2 92//2
f 93//4 46//4 40//4
f 46//4 93//4 94//4
f 95//5 96//5 97//5
f 96//5 95//5 98//5
f 96//1 40//1 97//1
f 40//1 96//1 93//1
f 94//3 96//3 98//3
f 96//3 94//3 93//3
f 94//2 95//2 46//2
f 95//2 94//2 98//2
f 40//6 95//6 97//6
f 95//6 40//6 46//6
f 99//4 100//4 101//4
f 100//4 99//4 102//4
f 80//5 103//5 6//5
f 103//5 80//5 104//5
f 103//1 101//1 6//1
f 101//1 103//1 99//1
f 102//3 103//3 104//3
f 103//3 102//3 99//3
f 102//2 80//2 100//2
f 80//2 102//2 104//2
f 101//6 80//6 6//6
f 80//6 101//6 100//6
f 58//5 13//5 25//5
f 13//5 58//5 50//5
f 2//4 57//4 16//4
f 57//4 2//4 51//4
f 58//3 16//3 57//3
f 16//3 58//3 25//3
f 13//6 51//6 2//6
f 51//6 13//6 50//6
f 56//5 11//5 17//5
f 11//5 56//5 42//5
f 10//4 65//4 18//4
f 65//4 10//4 53//4
f 56//3 18//3 65//3
f 18//3 56//3 17//3
f 11//6 53//6 10//6
f 53//6 11//6 42//6
