# Blender v2.79 (sub 0) OBJ File: ''
# www.blender.org
o Invader-1
v 0.240000 0.640000 -0.160000
v -0.240000 0.800000 -0.160000
v 0.240000 0.800000 -0.160000
v -0.240000 0.640000 -0.160000
v 0.880000 1.120000 -0.160000
v 0.720000 0.800000 -0.160000
v 0.720000 1.120000 -0.160000
v 0.720000 0.480000 -0.160000
v 0.560000 0.800000 -0.160000
v 0.400000 0.640000 -0.160000
v 0.400000 0.800000 -0.160000
v 0.400000 0.320000 -0.160000
v 0.880000 0.480000 -0.160000
v 0.400000 0.960000 -0.160000
v 0.560000 0.960000 -0.160000
v 0.240000 0.960000 -0.160000
v -0.240000 0.960000 -0.160000
v -0.400000 0.960000 -0.160000
v -0.400000 0.800000 -0.160000
v -0.560000 0.960000 -0.160000
v -0.560000 0.800000 -0.160000
v -0.400000 0.640000 -0.160000
v -0.720000 0.480000 -0.160000
v 0.240000 1.120000 -0.160000
v 0.400000 1.120000 -0.160000
v -0.400000 1.120000 -0.160000
v -0.240000 1.120000 -0.160000
v -0.720000 0.800000 -0.160000
v -0.880000 1.120000 -0.160000
v -0.720000 1.120000 -0.160000
v 0.560000 0.320000 -0.160000
v -0.400000 0.320000 -0.160000
v -0.880000 0.480000 -0.160000
v -0.400000 0.160000 -0.160000
v -0.560000 0.320000 -0.160000
v -0.560000 0.160000 -0.160000
v 0.560000 0.160000 -0.160000
v 0.400000 0.160000 -0.160000
v 0.720000 0.320000 -0.160000
v -0.720000 0.320000 -0.160000
v -0.240000 0.640000 -0.000000
v 0.240000 0.800000 -0.000000
v -0.240000 0.800000 -0.000000
v 0.240000 0.640000 -0.000000
v -0.880000 1.120000 -0.000000
v -0.720000 0.800000 -0.000000
v -0.720000 1.120000 -0.000000
v -0.720000 0.480000 -0.000000
v -0.560000 0.800000 -0.000000
v -0.400000 0.640000 -0.000000
v -0.400000 0.800000 -0.000000
v -0.400000 0.320000 -0.000000
v -0.880000 0.480000 -0.000000
v -0.400000 0.960000 -0.000000
v -0.560000 0.960000 -0.000000
v -0.240000 0.960000 -0.000000
v 0.240000 0.960000 -0.000000
v 0.400000 0.960000 -0.000000
v 0.400000 0.800000 -0.000000
v 0.560000 0.960000 -0.000000
v 0.560000 0.800000 -0.000000
v 0.400000 0.640000 -0.000000
v 0.720000 0.480000 -0.000000
v -0.240000 1.120000 -0.000000
v -0.400000 1.120000 -0.000000
v 0.400000 1.120000 -0.000000
v 0.240000 1.120000 -0.000000
v 0.720000 0.800000 -0.000000
v 0.880000 1.120000 -0.000000
v 0.720000 1.120000 -0.000000
v -0.560000 0.320000 -0.000000
v 0.400000 0.320000 -0.000000
v 0.880000 0.480000 -0.000000
v 0.400000 0.160000 -0.000000
v 0.560000 0.320000 -0.000000
v 0.560000 0.160000 -0.000000
v -0.560000 0.160000 -0.000000
v -0.400000 0.160000 -0.000000
v -0.720000 0.320000 -0.000000
v 0.720000 0.320000 -0.000000
v -0.560000 1.120000 -0.160000
v -0.560000 1.280000 -0.000000
v -0.560000 1.280000 -0.160000
v -0.560000 1.120000 -0.000000
v -0.400000 1.280000 -0.000000
v -0.400000 1.280000 -0.160000
v 0.400000 1.280000 -0.000000
v 0.400000 1.280000 -0.160000
v 0.560000 1.280000 -0.000000
v 0.560000 1.120000 -0.160000
v 0.560000 1.280000 -0.160000
v 0.560000 1.120000 -0.000000
v -0.720000 0.000000 -0.160000
v -0.720000 0.160000 -0.000000
v -0.720000 0.160000 -0.160000
v -0.720000 0.000000 0.000000
v -0.560000 0.000000 -0.160000
v -0.560000 0.000000 0.000000
v 0.560000 0.000000 -0.160000
v 0.560000 0.000000 0.000000
v 0.720000 0.160000 -0.000000
v 0.720000 0.000000 -0.160000
v 0.720000 0.160000 -0.160000
v 0.720000 0.000000 0.000000
vn 0.0000 0.0000 -1.0000
vn 0.0000 0.0000 1.0000
vn 0.0000 -1.0000 0.0000
vn -1.0000 0.0000 0.0000
vn 1.0000 0.0000 0.0000
vn 0.0000 1.0000 0.0000
s off
f 1//1 2//1 3//1
f 2//1 1//1 4//1
f 5//1 6//1 7//1
f 8//1 9//1 6//1
f 9//1 10//1 11//1
f 12//1 1//1 10//1
f 1//1 12//1 4//1
f 9//1 8//1 10//1
f 8//1 6//1 13//1
f 13//1 6//1 5//1
f 11//1 14//1 15//1
f 14//1 11//1 16//1
f 16//1 3//1 17//1
f 2//1 17//1 3//1
f 11//1 15//1 9//1
f 16//1 11//1 3//1
f 17//1 2//1 18//1
f 19//1 18//1 2//1
f 18//1 19//1 20//1
f 19//1 21//1 20//1
f 22//1 21//1 19//1
f 23//1 21//1 22//1
f 14//1 24//1 25//1
f 24//1 14//1 16//1
f 17//1 26//1 27//1
f 26//1 17//1 18//1
f 28//1 29//1 30//1
f 31//1 10//1 8//1
f 32//1 4//1 12//1
f 21//1 23//1 28//1
f 33//1 28//1 23//1
f 28//1 33//1 29//1
f 34//1 35//1 32//1
f 35//1 34//1 36//1
f 37//1 12//1 31//1
f 12//1 37//1 38//1
f 31//1 8//1 39//1
f 10//1 31//1 12//1
f 4//1 32//1 22//1
f 35//1 22//1 32//1
f 22//1 35//1 23//1
f 23//1 35//1 40//1
f 41//2 42//2 43//2
f 42//2 41//2 44//2
f 45//2 46//2 47//2
f 48//2 49//2 46//2
f 49//2 50//2 51//2
f 52//2 41//2 50//2
f 41//2 52//2 44//2
f 49//2 48//2 50//2
f 48//2 46//2 53//2
f 53//2 46//2 45//2
f 51//2 54//2 55//2
f 54//2 51//2 56//2
f 56//2 43//2 57//2
f 42//2 57//2 43//2
f 51//2 55//2 49//2
f 56//2 51//2 43//2
f 57//2 42//2 58//2
f 59//2 58//2 42//2
f 58//2 59//2 60//2
f 59//2 61//2 60//2
f 62//2 61//2 59//2
f 63//2 61//2 62//2
f 54//2 64//2 65//2
f 64//2 54//2 56//2
f 57//2 66//2 67//2
f 66//2 57//2 58//2
f 68//2 69//2 70//2
f 71//2 50//2 48//2
f 72//2 44//2 52//2
f 61//2 63//2 68//2
f 73//2 68//2 63//2
f 68//2 73//2 69//2
f 74//2 75//2 72//2
f 75//2 74//2 76//2
f 77//2 52//2 71//2
f 52//2 77//2 78//2
f 71//2 48//2 79//2
f 50//2 71//2 52//2
f 44//2 72//2 62//2
f 75//2 62//2 72//2
f 62//2 75//2 63//2
f 63//2 75//2 80//2
f 52//3 12//3 72//3
f 12//3 52//3 32//3
f 38//4 72//4 12//4
f 72//4 38//4 74//4
f 74//3 37//3 76//3
f 37//3 74//3 38//3
f 75//5 37//5 31//5
f 37//5 75//5 76//5
f 75//3 39//3 80//3
f 39//3 75//3 31//3
f 63//5 39//5 8//5
f 39//5 63//5 80//5
f 63//3 13//3 73//3
f 13//3 63//3 8//3
f 69//5 13//5 5//5
f 13//5 69//5 73//5
f 7//6 69//6 5//6
f 69//6 7//6 70//6
f 6//4 70//4 7//4
f 70//4 6//4 68//4
f 9//6 68//6 6//6
f 68//6 9//6 61//6
f 60//5 9//5 15//5
f 9//5 60//5 61//5
f 14//6 60//6 15//6
f 60//6 14//6 58//6
f 66//5 14//5 25//5
f 14//5 66//5 58//5
f 24//6 66//6 25//6
f 66//6 24//6 67//6
f 16//4 67//4 24//4
f 67//4 16//4 57//4
f 17//6 57//6 16//6
f 57//6 17//6 56//6
f 64//5 17//5 27//5
f 17//5 64//5 56//5
f 26//6 64//6 27//6
f 64//6 26//6 65//6
f 18//4 65//4 26//4
f 65//4 18//4 54//4
f 20//6 54//6 18//6
f 54//6 20//6 55//6
f 21//4 55//4 20//4
f 55//4 21//4 49//4
f 28//6 49//6 21//6
f 49//6 28//6 46//6
f 47//5 28//5 30//5
f 28//5 47//5 46//5
f 29//6 47//6 30//6
f 47//6 29//6 45//6
f 33//4 45//4 29//4
f 45//4 33//4 53//4
f 53//3 23//3 48//3
f 23//3 53//3 33//3
f 40//4 48//4 23//4
f 48//4 40//4 79//4
f 79//3 35//3 71//3
f 35//3 79//3 40//3
f 36//4 71//4 35//4
f 71//4 36//4 77//4
f 77//3 34//3 78//3
f 34//3 77//3 36//3
f 52//5 34//5 32//5
f 34//5 52//5 78//5
f 81//4 82//4 83//4
f 82//4 81//4 84//4
f 85//5 26//5 86//5
f 26//5 85//5 65//5
f 26//1 83//1 86//1
f 83//1 26//1 81//1
f 83//6 85//6 86//6
f 85//6 83//6 82//6
f 84//2 85//2 82//2
f 85//2 84//2 65//2
f 84//3 26//3 65//3
f 26//3 84//3 81//3
f 25//4 87//4 88//4
f 87//4 25//4 66//4
f 89//5 90//5 91//5
f 90//5 89//5 92//5
f 90//1 88//1 91//1
f 88//1 90//1 25//1
f 66//2 89//2 87//2
f 89//2 66//2 92//2
f 88//6 89//6 91//6
f 89//6 88//6 87//6
f 66//3 90//3 92//3
f 90//3 66//3 25//3
f 93//4 94//4 95//4
f 94//4 93//4 96//4
f 77//5 97//5 36//5
f 97//5 77//5 98//5
f 97//1 95//1 36//1
f 95//1 97//1 93//1
f 95//6 77//6 36//6
f 77//6 95//6 94//6
f 96//2 77//2 94//2
f 77//2 96//2 98//2
f 96//3 97//3 98//3
f 97//3 96//3 93//3
f 99//4 76//4 37//4
f 76//4 99//4 100//4
f 101//5 102//5 103//5
f 102//5 101//5 104//5
f 102//1 37//1 103//1
f 37//1 102//1 99//1
f 37//6 101//6 103//6
f 101//6 37//6 76//6
f 100//3 102//3 104//3
f 102//3 100//3 99//3
f 100//2 101//2 76//2
f 101//2 100//2 104//2
f 51//5 22//5 19//5
f 22//5 51//5 50//5
f 4//4 43//4 2//4
f 43//4 4//4 41//4
f 51//3 2//3 43//3
f 2//3 51//3 19//3
f 22//6 41//6 4//6
f 41//6 22//6 50//6
f 42//5 1//5 3//5
f 1//5 42//5 44//5
f 10//4 59//4 11//4
f 59//4 10//4 62//4
f 42//3 11//3 59//3
f 11//3 42//3 3//3
f 1//6 62//6 10//6
f 62//6 1//6 44//6
